<svg xmlns="http://www.w3.org/2000/svg" xmlns:xlink="http://www.w3.org/1999/xlink" viewBox="0 0 64 64"><defs><style>.cls-1,.cls-10,.cls-14,.cls-16{fill:none;}.cls-2{opacity:0.13;}.cls-10,.cls-13,.cls-14,.cls-15,.cls-16,.cls-17,.cls-18,.cls-19,.cls-2,.cls-20,.cls-21,.cls-22,.cls-23,.cls-24,.cls-25,.cls-26{isolation:isolate;}.cls-3{fill:#665888;}.cls-4{opacity:0.64;}.cls-5{clip-path:url(#clip-path);}.cls-6{clip-path:url(#clip-path-2);}.cls-7,.cls-8{fill:#ededf4;}.cls-7{stroke:#ededf4;stroke-miterlimit:10;}.cls-9{fill:url(#未命名的渐变_20);}.cls-10{stroke:#000;}.cls-10,.cls-12{stroke-linecap:round;stroke-linejoin:round;stroke-width:1px;}.cls-10,.cls-14,.cls-16{opacity:0.3;}.cls-11{fill:#2f3b55;}.cls-12{fill:url(#未命名的渐变_21);stroke:url(#未命名的渐变_22);}.cls-13,.cls-17,.cls-21{opacity:0.5;}.cls-13{fill:url(#未命名的渐变_23);}.cls-14{stroke:url(#未命名的渐变_18);}.cls-15,.cls-18,.cls-19,.cls-20,.cls-23,.cls-25,.cls-26{opacity:0.4;}.cls-15{fill:url(#未命名的渐变_25);}.cls-16{stroke:url(#未命名的渐变_18-2);}.cls-17{fill:url(#未命名的渐变_27);}.cls-18{fill:url(#未命名的渐变_28);}.cls-19{fill:url(#未命名的渐变_28-2);}.cls-20{fill:url(#未命名的渐变_28-3);}.cls-21{fill:url(#未命名的渐变_31);}.cls-22{opacity:0.2;fill:url(#未命名的渐变_32);}.cls-23{fill:url(#未命名的渐变_32-2);}.cls-24{opacity:0.8;fill:url(#未命名的渐变_32-3);}.cls-25{fill:url(#未命名的渐变_35);}.cls-26{fill:url(#未命名的渐变_36);}</style><clipPath id="clip-path"><circle class="cls-1" cx="32" cy="32" r="27.5"/></clipPath><clipPath id="clip-path-2"><circle class="cls-1" cx="32" cy="32" r="35.33"/></clipPath><radialGradient id="未命名的渐变_20" cx="46.06" cy="-526.84" r="25.11" gradientTransform="translate(-1096.51 -22.74) rotate(90) scale(0.93 2.14)" gradientUnits="userSpaceOnUse"><stop offset="0" stop-color="#07132d"/><stop offset="1" stop-color="#425479"/></radialGradient><radialGradient id="未命名的渐变_21" cx="3178.78" cy="-3014.91" r="48.78" gradientTransform="translate(-1134.33 -906.1) rotate(90) scale(0.29 0.39)" gradientUnits="userSpaceOnUse"><stop offset="0" stop-color="#612f91"/><stop offset="1" stop-color="#1a4aa2"/></radialGradient><linearGradient id="未命名的渐变_22" x1="8096.69" y1="8213.55" x2="8096.69" y2="11075.64" gradientTransform="translate(-962.27 -1317.02) scale(0.12)" gradientUnits="userSpaceOnUse"><stop offset="0" stop-color="#170418"/><stop offset="1" stop-color="#50386b"/></linearGradient><radialGradient id="未命名的渐变_23" cx="2989.21" cy="5398.71" r="22.72" gradientTransform="translate(-775.25 -1337.91) scale(0.27 0.25)" gradientUnits="userSpaceOnUse"><stop offset="0" stop-opacity="0"/><stop offset="0.5" stop-opacity="0"/><stop offset="1"/></radialGradient><linearGradient id="未命名的渐变_18" x1="2065.41" y1="-3932.79" x2="2065.41" y2="-3856.6" gradientTransform="matrix(0.34, 0, 0, -0.34, -676.64, -1304.54)" gradientUnits="userSpaceOnUse"><stop offset="0" stop-color="#fff"/><stop offset="0.34" stop-color="#fff" stop-opacity="0.23"/><stop offset="0.62" stop-color="#fff" stop-opacity="0.16"/><stop offset="1" stop-color="#fff" stop-opacity="0.39"/></linearGradient><radialGradient id="未命名的渐变_25" cx="-94.7" cy="1511.24" r="9.22" gradientTransform="translate(272.71 -1280.84) scale(0.96)" gradientUnits="userSpaceOnUse"><stop offset="0" stop-color="#ff54d2" stop-opacity="0"/><stop offset="0.32" stop-color="#f62b68"/><stop offset="0.56" stop-color="#ff0105"/><stop offset="1" stop-color="#ff54d2" stop-opacity="0.48"/></radialGradient><linearGradient id="未命名的渐变_18-2" x1="6143.25" y1="8623.54" x2="6143.25" y2="8699.73" gradientTransform="translate(-926.35 -1319.05) scale(0.16)" xlink:href="#未命名的渐变_18"/><linearGradient id="未命名的渐变_27" x1="14276.08" y1="24066.26" x2="14276.08" y2="24097.34" gradientTransform="translate(-1033.05 -1318.55) scale(0.07 0.06)" gradientUnits="userSpaceOnUse"><stop offset="0" stop-color="#fff"/><stop offset="1" stop-color="#fff" stop-opacity="0"/></linearGradient><radialGradient id="未命名的渐变_28" cx="82.44" cy="1063.28" r="9.22" gradientTransform="matrix(0.97, 0.26, -0.25, 0.93, 217.96, -979.98)" gradientUnits="userSpaceOnUse"><stop offset="0" stop-color="#fff" stop-opacity="0"/><stop offset="0.41" stop-color="#fff" stop-opacity="0"/><stop offset="1" stop-color="#fff" stop-opacity="0.48"/></radialGradient><radialGradient id="未命名的渐变_28-2" cx="-46.41" cy="-1181.45" r="9.22" gradientTransform="translate(-1107.57 78.4) rotate(90) scale(1 0.96)" xlink:href="#未命名的渐变_28"/><radialGradient id="未命名的渐变_28-3" cx="381.66" cy="-137.67" r="9.22" gradientTransform="matrix(0.58, 0.81, -0.78, 0.56, -298.65, -199.89)" xlink:href="#未命名的渐变_28"/><radialGradient id="未命名的渐变_31" cx="-3235.42" cy="-103.14" r="9.22" gradientTransform="matrix(-0.68, -0.68, 0.68, -0.68, -2104.46, -2247.21)" gradientUnits="userSpaceOnUse"><stop offset="0" stop-color="#ff54d2" stop-opacity="0"/><stop offset="0.32" stop-color="#ff54d2" stop-opacity="0"/><stop offset="0.56" stop-color="#ff54d2" stop-opacity="0.25"/><stop offset="1" stop-color="#ff54d2" stop-opacity="0.48"/></radialGradient><radialGradient id="未命名的渐变_32" cx="-1115.8" cy="2540.5" r="7.55" gradientTransform="matrix(1.07, -0.62, 0.35, 0.61, 337.62, -2189.35)" xlink:href="#未命名的渐变_27"/><radialGradient id="未命名的渐变_32-2" cx="-1051.23" cy="3128.05" r="7.56" gradientTransform="matrix(0.86, -0.5, 0.28, 0.49, 45.24, -2024.25)" xlink:href="#未命名的渐变_27"/><radialGradient id="未命名的渐变_32-3" cx="3373.3" cy="5291.71" r="7.55" gradientTransform="translate(-794.49 -1324.18) scale(0.24 0.26)" xlink:href="#未命名的渐变_27"/><linearGradient id="未命名的渐变_35" x1="3367.26" y1="5289.5" x2="3355.97" y2="5280.42" gradientTransform="translate(-796.55 -1325.42) scale(0.24 0.26)" gradientUnits="userSpaceOnUse"><stop offset="0" stop-color="#feffff"/><stop offset="1" stop-color="#fe70ca"/></linearGradient><linearGradient id="未命名的渐变_36" x1="5413.26" y1="7549.49" x2="5401.97" y2="7540.41" gradientTransform="translate(-898.41 -1322.17) scale(0.17 0.18)" gradientUnits="userSpaceOnUse"><stop offset="0" stop-color="#fbac9b"/><stop offset="1" stop-color="#fcfafc"/></linearGradient></defs><title>camera</title><g id="图层_1" data-name="图层 1"><g id="图层_2" data-name="图层 2"><circle class="cls-2" cx="32" cy="32" r="32"/><circle class="cls-3" cx="32" cy="32" r="30.5"/><g class="cls-4"><g class="cls-5"><g class="cls-6"><path class="cls-7" d="M.88,12.78a2,2,0,0,0-3.6.12A38.09,38.09,0,0,0-7.67,32,38.71,38.71,0,0,0-6.31,42.17a2.12,2.12,0,0,0,2,1.49H15.88a2,2,0,0,0,1.74-3.1Z"/><path class="cls-7" d="M31.75,15.14H64.48A2.11,2.11,0,0,0,66.34,12,40.6,40.6,0,0,0,42.41-6.31a2.08,2.08,0,0,0-2.36,1L29.89,12A2.11,2.11,0,0,0,31.75,15.14Z"/><path class="cls-7" d="M17.12,24.44l17-29a2,2,0,0,0-1.74-3.1H32A39.39,39.39,0,0,0,3.36,4.6a2.05,2.05,0,0,0-.25,2.48L13.53,24.44A2.09,2.09,0,0,0,17.12,24.44Z"/><path class="cls-7" d="M46.26,23.07,62.75,51.84a2.09,2.09,0,0,0,3.6,0A39.52,39.52,0,0,0,71.67,32a37.32,37.32,0,0,0-1.49-10.54,2.12,2.12,0,0,0-2-1.49H48A2,2,0,0,0,46.26,23.07Z"/><path class="cls-7" d="M46.63,39.81,30.26,68.57A2,2,0,0,0,32,71.67h0A39.22,39.22,0,0,0,60.14,59.89a2.05,2.05,0,0,0,.25-2.48L50.22,39.81A2.09,2.09,0,0,0,46.63,39.81Z"/><path class="cls-7" d="M31.88,48.61H-.61a2,2,0,0,0-1.74,3.1A39.84,39.84,0,0,0,11.54,65.85,35.06,35.06,0,0,0,21,69.94a2.08,2.08,0,0,0,2.36-1L33.74,51.59A2,2,0,0,0,31.88,48.61Z"/></g></g></g></g><circle class="cls-8" cx="32" cy="32" r="10"/><path class="cls-9" d="M32,20.45A11.55,11.55,0,1,0,43.55,32,11.58,11.58,0,0,0,32,20.45Z"/><path class="cls-10" d="M32,21.27A10.73,10.73,0,1,0,42.73,32,10.71,10.71,0,0,0,32,21.27Z"/><path class="cls-11" d="M32,22.9A9.1,9.1,0,1,0,41.1,32,9.11,9.11,0,0,0,32,22.9Z"/><path class="cls-12" d="M32,26a6,6,0,1,0,6,6A6,6,0,0,0,32,26Z"/><path class="cls-13" d="M32,27.22A4.78,4.78,0,1,0,36.78,32,4.73,4.73,0,0,0,32,27.22Z"/><path class="cls-14" d="M45.18,32A13.18,13.18,0,1,0,32,45.18,13.17,13.17,0,0,0,45.18,32Z"/><path class="cls-10" d="M32,23.6A8.4,8.4,0,1,0,40.4,32,8.37,8.37,0,0,0,32,23.6Z"/><path class="cls-15" d="M23.6,30.37a8.41,8.41,0,0,1,6.18-6.65L32,32Z"/><path class="cls-16" d="M38,32a6,6,0,1,1-6-6A6,6,0,0,1,38,32Z"/><path class="cls-17" d="M34,30.48c0,.82-.93,1.52-2.1,1.52s-2-.7-2-1.52.82-1.52,2-1.63A1.89,1.89,0,0,1,34,30.48Z"/><path class="cls-18" d="M40.63,32a8.76,8.76,0,0,1-.58,3L32,32Z"/><path class="cls-19" d="M32.82,40.63A7.61,7.61,0,0,1,30,40.4L32,32Z"/><path class="cls-20" d="M39.35,36.55a8.63,8.63,0,0,1-4,3.38L32,32Z"/><path class="cls-21" d="M25.93,23.72a8.52,8.52,0,0,1,12.13,0h0L32,29.9Z"/><path class="cls-22" d="M45.65,34.68c1.52,2.57-.93,6.65-5.37,9.22s-9.22,2.57-10.73.12.93-6.65,5.37-9.22S44.13,32.12,45.65,34.68Z"/><path class="cls-23" d="M31.3,20.33c1.17,2-.7,5.37-4.32,7.47s-7.47,2.1-8.63.12V27.8c-1.17-2,.82-5.37,4.32-7.47s7.47-2.1,8.63,0Z"/><path class="cls-24" d="M33.17,31.07a1.94,1.94,0,0,1-1.87,2,1.87,1.87,0,0,1-1.87-2,1.87,1.87,0,1,1,3.73,0Z"/><path class="cls-25" d="M28.27,28a1.94,1.94,0,0,1-1.87,2,2,2,0,0,1,0-4A2,2,0,0,1,28.27,28Z"/><path class="cls-26" d="M28.73,29.2a1.4,1.4,0,0,1-1.28,1.4,1.32,1.32,0,0,1-1.28-1.4,1.4,1.4,0,0,1,1.28-1.4A1.32,1.32,0,0,1,28.73,29.2Z"/></g></svg>