<svg xmlns="http://www.w3.org/2000/svg" xmlns:xlink="http://www.w3.org/1999/xlink" viewBox="0 0 64 64"><defs><style>.cls-1,.cls-10,.cls-11,.cls-12,.cls-13,.cls-15,.cls-23,.cls-3,.cls-31,.cls-35,.cls-37,.cls-4{fill:none;}.cls-2{fill:url(#未命名的渐变_62);}.cls-10,.cls-3,.cls-45{opacity:0.8;}.cls-10,.cls-11,.cls-17,.cls-18,.cls-20,.cls-21,.cls-23,.cls-24,.cls-3,.cls-31,.cls-34,.cls-35,.cls-36,.cls-37,.cls-38,.cls-39,.cls-40,.cls-41,.cls-42,.cls-43,.cls-44,.cls-45,.cls-46,.cls-47,.cls-5,.cls-6,.cls-7,.cls-9{isolation:isolate;}.cls-3{stroke:url(#未命名的渐变_61);}.cls-10,.cls-15,.cls-31,.cls-33,.cls-4{stroke-linecap:round;}.cls-10,.cls-12,.cls-13,.cls-31,.cls-33,.cls-4{stroke-linejoin:round;}.cls-4{stroke:url(#未命名的渐变_43);}.cls-11,.cls-5,.cls-6,.cls-7{opacity:0.3;}.cls-5{fill:url(#未命名的渐变_41);}.cls-6{fill:url(#未命名的渐变_84);}.cls-7{fill:url(#未命名的渐变_41-2);}.cls-8{fill:url(#未命名的渐变_78);}.cls-9{opacity:0.4;fill:url(#未命名的渐变_39);}.cls-10{stroke:url(#未命名的渐变_38);}.cls-11,.cls-31{stroke:#000;}.cls-12{stroke:#fff;opacity:0.36;}.cls-13,.cls-23{stroke:#665888;opacity:0.35;}.cls-14,.cls-29{fill:#ededf4;}.cls-15{stroke:url(#未命名的渐变_3);}.cls-16{fill:url(#未命名的渐变_8);}.cls-17,.cls-18,.cls-25{fill:#665888;}.cls-17{opacity:0.03;}.cls-18,.cls-20{opacity:0.1;}.cls-19{fill:url(#未命名的渐变_77);}.cls-20,.cls-21,.cls-22{fill:#fff;}.cls-21,.cls-31,.cls-35,.cls-37{opacity:0.3;}.cls-24{opacity:0.13;}.cls-26{opacity:0.64;}.cls-27{clip-path:url(#clip-path);}.cls-28{clip-path:url(#clip-path-2);}.cls-29{stroke:#ededf4;stroke-miterlimit:10;}.cls-30{fill:url(#未命名的渐变_20);}.cls-31,.cls-33{stroke-width:1px;}.cls-32{fill:#2f3b55;}.cls-33{fill:url(#未命名的渐变_21);stroke:url(#未命名的渐变_22);}.cls-34,.cls-38,.cls-42{opacity:0.5;}.cls-34{fill:url(#未命名的渐变_23);}.cls-35{stroke:url(#未命名的渐变_18);}.cls-36,.cls-39,.cls-40,.cls-41,.cls-44,.cls-46,.cls-47{opacity:0.4;}.cls-36{fill:url(#未命名的渐变_25);}.cls-37{stroke:url(#未命名的渐变_18-2);}.cls-38{fill:url(#未命名的渐变_27);}.cls-39{fill:url(#未命名的渐变_28);}.cls-40{fill:url(#未命名的渐变_28-2);}.cls-41{fill:url(#未命名的渐变_28-3);}.cls-42{fill:url(#未命名的渐变_31);}.cls-43{opacity:0.2;fill:url(#未命名的渐变_32);}.cls-44{fill:url(#未命名的渐变_32-2);}.cls-45{fill:url(#未命名的渐变_32-3);}.cls-46{fill:url(#未命名的渐变_35);}.cls-47{fill:url(#未命名的渐变_36);}</style><linearGradient id="未命名的渐变_62" x1="-87.84" y1="162.13" x2="-87.84" y2="159.22" gradientTransform="matrix(1.31, 0, 0, -1.29, 147.38, 222.86)" gradientUnits="userSpaceOnUse"><stop offset="0" stop-color="#f9f9f9"/><stop offset="1" stop-color="#c9c9c9"/></linearGradient><linearGradient id="未命名的渐变_61" x1="-70.48" y1="49.77" x2="-70.48" y2="99.65" gradientTransform="matrix(1.06, 0, 0, -1.08, 106.45, 105.47)" gradientUnits="userSpaceOnUse"><stop offset="0" stop-opacity="0.32"/><stop offset="1" stop-opacity="0.28"/></linearGradient><linearGradient id="未命名的渐变_43" x1="-61.76" y1="145.69" x2="-61.76" y2="110.24" gradientTransform="matrix(1.27, 0, 0, -1.22, 110.75, 184.63)" gradientUnits="userSpaceOnUse"><stop offset="0" stop-color="#fff"/><stop offset="0.11" stop-color="#fff" stop-opacity="0.23"/><stop offset="0.98" stop-color="#fff" stop-opacity="0.16"/><stop offset="1" stop-color="#fff" stop-opacity="0.39"/></linearGradient><radialGradient id="未命名的渐变_41" cx="16069.26" cy="-14384.58" r="117.14" gradientTransform="matrix(0.04, 0, 0, -0.03, -587.22, -420.13)" gradientUnits="userSpaceOnUse"><stop offset="0"/><stop offset="1" stop-opacity="0"/></radialGradient><linearGradient id="未命名的渐变_84" x1="5721.83" y1="-14264.59" x2="5721.83" y2="-14507.46" gradientTransform="matrix(0.11, 0, 0, -0.03, -584.24, -420.13)" gradientUnits="userSpaceOnUse"><stop offset="0" stop-opacity="0"/><stop offset="0.5"/><stop offset="1" stop-opacity="0"/></linearGradient><radialGradient id="未命名的渐变_41-2" cx="-16151.83" cy="-14384.58" r="117.14" gradientTransform="translate(-642.78 -420.13) rotate(180) scale(0.04 0.03)" xlink:href="#未命名的渐变_41"/><linearGradient id="未命名的渐变_78" x1="32" y1="17.28" x2="32" y2="54.22" gradientUnits="userSpaceOnUse"><stop offset="0" stop-color="#fff"/><stop offset="1" stop-color="#ededf4"/></linearGradient><linearGradient id="未命名的渐变_39" x1="-203.44" y1="132.31" x2="-203.57" y2="145.28" gradientTransform="matrix(1.54, 0, 0, -1.31, 346.47, 235.48)" gradientUnits="userSpaceOnUse"><stop offset="0" stop-color="#0a0a0a" stop-opacity="0.5"/><stop offset="1" stop-color="#0a0a0a" stop-opacity="0"/></linearGradient><linearGradient id="未命名的渐变_38" x1="-79.47" y1="152.83" x2="-79.47" y2="125.54" gradientTransform="matrix(1.32, 0, 0, -1.27, 136.98, 212.22)" gradientUnits="userSpaceOnUse"><stop offset="0" stop-color="#fff"/><stop offset="0.02" stop-color="#fff" stop-opacity="0.23"/><stop offset="0.98" stop-color="#fff" stop-opacity="0.16"/><stop offset="1" stop-color="#fff" stop-opacity="0.39"/></linearGradient><linearGradient id="未命名的渐变_3" x1="-627.64" y1="1212" x2="-627.64" y2="1228.63" gradientTransform="translate(931.1 -1348.25) scale(1.43 1.14)" gradientUnits="userSpaceOnUse"><stop offset="0" stop-color="#fff"/><stop offset="0.01" stop-color="#fff" stop-opacity="0.23"/><stop offset="0.99" stop-color="#fff" stop-opacity="0.16"/><stop offset="1" stop-color="#fff" stop-opacity="0.39"/></linearGradient><linearGradient id="未命名的渐变_8" x1="2552.14" y1="4378.26" x2="2552.14" y2="4347.31" gradientTransform="translate(-773.9 -1335.47) scale(0.32)" gradientUnits="userSpaceOnUse"><stop offset="0" stop-color="#e89c42"/><stop offset="1" stop-color="#faca67"/></linearGradient><linearGradient id="未命名的渐变_77" x1="2552.14" y1="4313.55" x2="2552.14" y2="4346.69" gradientTransform="translate(-773.9 -1335.47) scale(0.32)" gradientUnits="userSpaceOnUse"><stop offset="0" stop-color="#665888"/><stop offset="1" stop-color="#958ec8"/></linearGradient><clipPath id="clip-path"><circle class="cls-1" cx="26.91" cy="41.31" r="1.49"/></clipPath><clipPath id="clip-path-2"><circle class="cls-1" cx="26.91" cy="41.31" r="2.91"/></clipPath><radialGradient id="未命名的渐变_20" cx="-97.23" cy="-603.55" r="1.57" gradientTransform="translate(-1090.7 118.83) rotate(90) scale(0.8 1.85)" gradientUnits="userSpaceOnUse"><stop offset="0" stop-color="#07132d"/><stop offset="1" stop-color="#425479"/></radialGradient><radialGradient id="未命名的渐变_21" cx="3071.55" cy="-3440.06" r="3.06" gradientTransform="translate(-1123.4 -737.31) rotate(90) scale(0.25 0.33)" gradientUnits="userSpaceOnUse"><stop offset="0" stop-color="#612f91"/><stop offset="1" stop-color="#1a4aa2"/></radialGradient><linearGradient id="未命名的渐变_22" x1="8657.21" y1="8213.43" x2="8657.21" y2="11106.05" gradientTransform="translate(-1109.64 -1317.02) scale(0.12)" gradientUnits="userSpaceOnUse"><stop offset="0" stop-color="#170418"/><stop offset="1" stop-color="#50386b"/></linearGradient><radialGradient id="未命名的渐变_23" cx="3430.26" cy="5446.21" r="1.42" gradientTransform="translate(-773.76 -1153.17) scale(0.23 0.22)" gradientUnits="userSpaceOnUse"><stop offset="0" stop-opacity="0"/><stop offset="0.5" stop-opacity="0"/><stop offset="1"/></radialGradient><linearGradient id="未命名的渐变_18" x1="2372.22" y1="-3925.09" x2="2372.22" y2="-3920.04" gradientTransform="matrix(0.34, 0, 0, -0.34, -787, -1304.54)" gradientUnits="userSpaceOnUse"><stop offset="0" stop-color="#fff"/><stop offset="0.34" stop-color="#fff" stop-opacity="0.23"/><stop offset="0.62" stop-color="#fff" stop-opacity="0.16"/><stop offset="1" stop-color="#fff" stop-opacity="0.39"/></linearGradient><radialGradient id="未命名的渐变_25" cx="-237.53" cy="1382.67" r="0.58" gradientTransform="translate(233.06 -1103.83) scale(0.83 0.83)" gradientUnits="userSpaceOnUse"><stop offset="0" stop-color="#ff54d2" stop-opacity="0"/><stop offset="0.32" stop-color="#f62b68"/><stop offset="0.56" stop-color="#ff0105"/><stop offset="1" stop-color="#ff54d2" stop-opacity="0.48"/></radialGradient><linearGradient id="未命名的渐变_18-2" x1="7019.53" y1="8717.77" x2="7019.53" y2="8722.83" gradientTransform="translate(-1068.14 -1319.05) scale(0.16)" xlink:href="#未命名的渐变_18"/><linearGradient id="未命名的渐变_27" x1="16292.56" y1="24280.52" x2="16292.56" y2="24282.21" gradientTransform="translate(-1188.52 -1318.55) scale(0.07 0.06)" gradientUnits="userSpaceOnUse"><stop offset="0" stop-color="#fff"/><stop offset="1" stop-color="#fff" stop-opacity="0"/></linearGradient><radialGradient id="未命名的渐变_28" cx="76.31" cy="1031.03" r="0.58" gradientTransform="matrix(0.83, 0.22, -0.22, 0.81, 185.8, -806.19)" gradientUnits="userSpaceOnUse"><stop offset="0" stop-color="#fff" stop-opacity="0"/><stop offset="0.41" stop-color="#fff" stop-opacity="0"/><stop offset="1" stop-color="#fff" stop-opacity="0.48"/></radialGradient><radialGradient id="未命名的渐变_28-2" cx="-202.62" cy="-1351.72" r="0.58" gradientTransform="translate(-1100.26 216.31) rotate(90) scale(0.86 0.83)" xlink:href="#未命名的渐变_28"/><radialGradient id="未命名的渐变_28-3" cx="319.4" cy="-268.74" r="0.58" gradientTransform="matrix(0.5, 0.7, -0.68, 0.49, -316.16, -51.61)" xlink:href="#未命名的渐变_28"/><radialGradient id="未命名的渐变_31" cx="-3534.05" cy="7" r="0.58" gradientTransform="matrix(-0.59, -0.59, 0.59, -0.59, -2061.12, -2038.29)" gradientUnits="userSpaceOnUse"><stop offset="0" stop-color="#ff54d2" stop-opacity="0"/><stop offset="0.32" stop-color="#ff54d2" stop-opacity="0"/><stop offset="0.56" stop-color="#ff54d2" stop-opacity="0.25"/><stop offset="1" stop-color="#ff54d2" stop-opacity="0.48"/></radialGradient><radialGradient id="未命名的渐变_32" cx="-1173.93" cy="2660.14" r="0.47" gradientTransform="matrix(0.92, -0.53, 0.3, 0.52, 303.97, -1978.66)" xlink:href="#未命名的渐变_27"/><radialGradient id="未命名的渐变_32-2" cx="-1079.53" cy="3309.24" r="0.47" gradientTransform="matrix(0.74, -0.43, 0.24, 0.42, 20.97, -1818.46)" xlink:href="#未命名的渐变_27"/><radialGradient id="未命名的渐变_32-3" cx="3879.15" cy="5341.39" r="0.47" gradientTransform="translate(-794.06 -1141.3) scale(0.21 0.22)" xlink:href="#未命名的渐变_27"/><linearGradient id="未命名的渐变_35" x1="3881.12" y1="5336.12" x2="3880.51" y2="5335.63" gradientTransform="translate(-923.42 -1325.42) scale(0.24 0.26)" gradientUnits="userSpaceOnUse"><stop offset="0" stop-color="#feffff"/><stop offset="1" stop-color="#fe70ca"/></linearGradient><linearGradient id="未命名的渐变_36" x1="6217.06" y1="7612.31" x2="6216.45" y2="7611.81" gradientTransform="translate(-1037.65 -1322.17) scale(0.17 0.18)" gradientUnits="userSpaceOnUse"><stop offset="0" stop-color="#fbac9b"/><stop offset="1" stop-color="#fcfafc"/></linearGradient></defs><title>file</title><g id="图层_4" data-name="图层 4"><path class="cls-2" d="M7.5,6.75a.5.5,0,0,0-.5.5v3.5H4.5a.5.5,0,0,0-.5.5v9.5a.5.5,0,0,0,.5.5h55a.5.5,0,0,0,.5-.5v-9.5a.5.5,0,0,0-.5-.5H28V7.25a.5.5,0,0,0-.5-.5Z"/><path class="cls-3" d="M8,6.25c-.91,0-1.5.46-1.5,1.33v2.67H5c-1,0-1.5.47-1.5,1.34,0,13.72,0,14.49,0,15.66,1.9,0,57-4.93,57-7.06V11.75a1.33,1.33,0,0,0-1.5-1.5H28.5V7.58c0-.88-.23-1.34-1.14-1.33Z"/><path class="cls-4" d="M7.5,7.25v4h-3v10h55v-10h-32v-4Z"/><path class="cls-5" d="M58,49.75v8c2.07,0,5-1.79,5-4S60.69,49.75,58,49.75Z"/><path class="cls-6" d="M6,49.75H58v8H6Z"/><path class="cls-7" d="M6,49.75v8c-2.07,0-5-1.79-5-4S3.31,49.75,6,49.75Z"/><path class="cls-8" d="M2.5,17.28c-1.44.16-.87,1.85-1,2.8C2,31.28,2.78,41.89,3.3,53.09c0,1.19,1.19,1.14,1.87,1.14H59.66c1.46-.14.85-1.86,1.06-2.85C61.24,40.19,62,29.81,62.5,18.62a1.23,1.23,0,0,0-1.22-1.33Z"/><path class="cls-9" d="M2.41,16.75H61.59A1.31,1.31,0,0,1,63,18.06L61.32,53.44a1.44,1.44,0,0,1-1.54,1.31H4.22a1.44,1.44,0,0,1-1.54-1.31L1,18.06A1.31,1.31,0,0,1,2.41,16.75Z"/><path class="cls-10" d="M61.07,18.25,4,18.28c-1.71,0-1.43,0-1.43,1.08L4.14,52.27c0,.94-.07,1,1.07,1H59.65c.54-11.58,1.26-22.68,1.81-34.32.05-.56,0-.68-.4-.68Z"/><path class="cls-11" d="M2.5,17.28c-1.44.16-.87,1.85-1,2.8C2,31.28,2.78,41.89,3.3,53.09c0,1.19,1.19,1.14,1.87,1.14H59.66c1.46-.14.85-1.86,1.06-2.85C61.24,40.19,62,29.81,62.5,18.62a1.23,1.23,0,0,0-1.22-1.33Z"/><path class="cls-12" d="M45,47.5H19v-19H45Z"/><path class="cls-13" d="M44.07,46.54h-24V27.34h24Z"/><path class="cls-14" d="M20.29,27.56H43.85V46.33H20.29Z"/><path class="cls-15" d="M43.63,46.11H20.51V27.78H43.63Z"/><path class="cls-16" d="M21.6,28.87V45H42.54V28.87Z"/><path class="cls-17" d="M21.6,29.35v9.38a6.91,6.91,0,0,0,1.79.22,3.91,3.91,0,0,0,1.83-.35,2.29,2.29,0,0,1,1.31-.31,5.85,5.85,0,0,1,2,.48,7.37,7.37,0,0,0,2.66.52,5.94,5.94,0,0,0,3.1-.87,4.57,4.57,0,0,1,2.27-.79,2.9,2.9,0,0,1,1.53.39,4.35,4.35,0,0,0,2,.48,4.45,4.45,0,0,0,2.4-.74V29.35Z"/><path class="cls-18" d="M21.6,29.35V38.3a6.91,6.91,0,0,0,1.79.22c1.83,0,1.57-.61,3.19-.61s2.53,1,4.67,1c2.66,0,3.27-1.61,5.37-1.61,1.66,0,1.75.87,3.58.87a5,5,0,0,0,2.4-.79v-8Z"/><path class="cls-19" d="M21.6,28.87v8.25a2.9,2.9,0,0,0,1.13.26c1,0,1.92-.79,3.53-.79s2.84,1,4.89,1,2.49-1.44,5.11-1.44,2.36.92,4,.92a4.83,4.83,0,0,0,2.27-.65V28.87Z"/><path class="cls-20" d="M36.3,35.42a6.06,6.06,0,0,0-2.92.74,4.31,4.31,0,0,1-2.18.7,7.21,7.21,0,0,1-2.49-.48,7.14,7.14,0,0,0-2.4-.52,6.93,6.93,0,0,0-2.14.39,4.28,4.28,0,0,1-1.4.39,2.24,2.24,0,0,1-1-.26s-.09,0-.17,0V37.9a6.91,6.91,0,0,0,1.79.22,4.05,4.05,0,0,0,1.83-.35,2.46,2.46,0,0,1,1.35-.31,5.62,5.62,0,0,1,2,.48,7.18,7.18,0,0,0,2.66.52,5.65,5.65,0,0,0,3.05-.87,4.58,4.58,0,0,1,2.31-.79,2.79,2.79,0,0,1,1.57.44,4.35,4.35,0,0,0,2,.48,4.59,4.59,0,0,0,2.4-.74V35.64a.16.16,0,0,0-.13,0,4.77,4.77,0,0,1-2.14.61,2.5,2.5,0,0,1-1.48-.44,7.43,7.43,0,0,0-2.57-.44Z"/><path class="cls-21" d="M36.3,35.77c-2.62,0-3.05,1.44-5.11,1.44s-3.27-1-4.89-1-2.57.79-3.53.79a2.9,2.9,0,0,1-1.13-.26v.83a6.91,6.91,0,0,0,1.79.22c1.83,0,1.57-.61,3.19-.61s2.53,1,4.67,1c2.66,0,3.27-1.61,5.37-1.61,1.66,0,1.75.87,3.58.87a5,5,0,0,0,2.4-.79V36a4.83,4.83,0,0,1-2.27.65C38.66,36.68,38.88,35.77,36.3,35.77Z"/><path class="cls-22" d="M36.3,36.16c-2.62,0-3.05,1.44-5.11,1.44s-3.27-1-4.89-1-2.57.79-3.53.79a2.9,2.9,0,0,1-1.13-.26v.83a6.91,6.91,0,0,0,1.79.22c1.83,0,1.57-.61,3.19-.61s2.53,1,4.67,1c2.66,0,3.27-1.61,5.37-1.61,1.66,0,1.75.87,3.58.87a5,5,0,0,0,2.4-.79v-.61a4.83,4.83,0,0,1-2.27.65C38.66,37.08,38.88,36.16,36.3,36.16Z"/><path class="cls-23" d="M21.82,29.09H42.33V44.8H21.82Z"/><g id="图层_2-2" data-name="图层 2"><circle class="cls-24" cx="26.91" cy="41.31" r="1.73"/><circle class="cls-25" cx="26.91" cy="41.31" r="1.65"/><g class="cls-26"><g class="cls-27"><g class="cls-28"><path class="cls-29" d="M24.35,39.73a.17.17,0,0,0-.3,0,3.14,3.14,0,0,0-.41,1.57,3.19,3.19,0,0,0,.11.84.17.17,0,0,0,.16.12h1.66a.17.17,0,0,0,.14-.26Z"/><path class="cls-29" d="M26.89,39.92h2.69a.17.17,0,0,0,.15-.26,3.34,3.34,0,0,0-2-1.51.17.17,0,0,0-.19.08l-.84,1.43A.17.17,0,0,0,26.89,39.92Z"/><path class="cls-29" d="M25.68,40.69l1.4-2.39a.17.17,0,0,0-.14-.26h0a3.24,3.24,0,0,0-2.36,1,.17.17,0,0,0,0,.2l.86,1.43A.17.17,0,0,0,25.68,40.69Z"/><path class="cls-29" d="M28.08,40.57l1.36,2.37a.17.17,0,0,0,.3,0,3.25,3.25,0,0,0,.44-1.63,3.07,3.07,0,0,0-.12-.87.17.17,0,0,0-.16-.12H28.22A.17.17,0,0,0,28.08,40.57Z"/><path class="cls-29" d="M28.11,42l-1.35,2.37a.17.17,0,0,0,.14.26h0a3.23,3.23,0,0,0,2.32-1,.17.17,0,0,0,0-.2L28.41,42A.17.17,0,0,0,28.11,42Z"/><path class="cls-29" d="M26.9,42.68H24.22a.17.17,0,0,0-.14.26,3.28,3.28,0,0,0,1.14,1.16,2.89,2.89,0,0,0,.78.34.17.17,0,0,0,.19-.08l.86-1.43A.17.17,0,0,0,26.9,42.68Z"/></g></g></g></g><circle class="cls-14" cx="26.91" cy="41.31" r="0.54"/><path class="cls-30" d="M26.91,40.68a.63.63,0,1,0,.63.63A.63.63,0,0,0,26.91,40.68Z"/><path class="cls-31" d="M26.91,40.73a.58.58,0,1,0,.58.58A.58.58,0,0,0,26.91,40.73Z"/><path class="cls-32" d="M26.91,40.82a.49.49,0,1,0,.49.49.49.49,0,0,0-.49-.49Z"/><path class="cls-33" d="M26.91,41a.32.32,0,1,0,.32.32A.32.32,0,0,0,26.91,41Z"/><path class="cls-34" d="M26.91,41a.26.26,0,1,0,.26.26A.26.26,0,0,0,26.91,41Z"/><path class="cls-35" d="M27.62,41.31a.71.71,0,1,0-.71.71A.71.71,0,0,0,27.62,41.31Z"/><path class="cls-31" d="M26.91,40.85a.45.45,0,1,0,.45.45A.45.45,0,0,0,26.91,40.85Z"/><path class="cls-36" d="M26.45,41.22a.46.46,0,0,1,.33-.36l.12.45Z"/><path class="cls-37" d="M27.23,41.31a.32.32,0,1,1-.32-.32A.32.32,0,0,1,27.23,41.31Z"/><path class="cls-38" d="M27,41.23s-.05.08-.11.08-.11,0-.11-.08,0-.08.11-.09a.1.1,0,0,1,.11.09Z"/><path class="cls-39" d="M27.37,41.31a.47.47,0,0,1,0,.16l-.44-.16Z"/><path class="cls-40" d="M27,41.78a.41.41,0,0,1-.15,0l.11-.45Z"/><path class="cls-41" d="M27.31,41.55a.47.47,0,0,1-.21.18l-.18-.43Z"/><path class="cls-42" d="M26.58,40.86a.46.46,0,0,1,.66,0h0l-.33.33Z"/><path class="cls-43" d="M27.65,41.45c.08.14-.05.36-.29.5s-.5.14-.58,0,.05-.36.29-.5S27.56,41.31,27.65,41.45Z"/><path class="cls-44" d="M26.87,40.68c.06.11,0,.29-.23.4s-.4.11-.47,0h0c-.06-.11,0-.29.23-.4s.4-.11.47,0Z"/><path class="cls-45" d="M27,41.26a.11.11,0,0,1-.1.11.1.1,0,0,1-.1-.11.1.1,0,1,1,.2,0Z"/><path class="cls-46" d="M26.71,41.09a.11.11,0,0,1-.1.11.11.11,0,0,1,0-.21A.11.11,0,0,1,26.71,41.09Z"/><path class="cls-47" d="M26.73,41.16a.08.08,0,0,1-.07.08.07.07,0,0,1-.07-.08.08.08,0,0,1,.07-.08A.07.07,0,0,1,26.73,41.16Z"/></g></svg>