<svg xmlns="http://www.w3.org/2000/svg" xmlns:xlink="http://www.w3.org/1999/xlink" viewBox="0 0 64 64"><defs><style>.cls-1,.cls-12,.cls-13,.cls-2,.cls-25,.cls-29,.cls-31,.cls-4{fill:none;}.cls-12,.cls-2{stroke:#665888;opacity:0.35;}.cls-2,.cls-25,.cls-27{stroke-linejoin:round;}.cls-23,.cls-3{fill:#ededf4;}.cls-13,.cls-25,.cls-27,.cls-4{stroke-linecap:round;}.cls-4{stroke:url(#未命名的渐变_3);}.cls-5{fill:url(#未命名的渐变_8);}.cls-15,.cls-6{opacity:0.03;}.cls-10,.cls-12,.cls-15,.cls-16,.cls-18,.cls-25,.cls-28,.cls-29,.cls-30,.cls-31,.cls-32,.cls-33,.cls-34,.cls-35,.cls-36,.cls-37,.cls-38,.cls-39,.cls-40,.cls-41,.cls-6,.cls-7,.cls-9{isolation:isolate;}.cls-16,.cls-7,.cls-9{opacity:0.1;}.cls-8{fill:url(#未命名的渐变_77);}.cls-10,.cls-11,.cls-9{fill:#fff;}.cls-10,.cls-25,.cls-29,.cls-31{opacity:0.3;}.cls-13{stroke:url(#未命名的渐变_3-2);}.cls-14{fill:url(#未命名的渐变_8-2);}.cls-15,.cls-16,.cls-19{fill:#665888;}.cls-17{fill:url(#未命名的渐变_77-2);}.cls-18{opacity:0.13;}.cls-20{opacity:0.64;}.cls-21{clip-path:url(#clip-path);}.cls-22{clip-path:url(#clip-path-2);}.cls-23{stroke:#ededf4;stroke-miterlimit:10;}.cls-24{fill:url(#未命名的渐变_20);}.cls-25{stroke:#000;}.cls-25,.cls-27{stroke-width:1px;}.cls-26{fill:#2f3b55;}.cls-27{fill:url(#未命名的渐变_21);stroke:url(#未命名的渐变_22);}.cls-28,.cls-32,.cls-36{opacity:0.5;}.cls-28{fill:url(#未命名的渐变_23);}.cls-29{stroke:url(#未命名的渐变_18);}.cls-30,.cls-33,.cls-34,.cls-35,.cls-38,.cls-40,.cls-41{opacity:0.4;}.cls-30{fill:url(#未命名的渐变_25);}.cls-31{stroke:url(#未命名的渐变_18-2);}.cls-32{fill:url(#未命名的渐变_27);}.cls-33{fill:url(#未命名的渐变_28);}.cls-34{fill:url(#未命名的渐变_28-2);}.cls-35{fill:url(#未命名的渐变_28-3);}.cls-36{fill:url(#未命名的渐变_31);}.cls-37{opacity:0.2;fill:url(#未命名的渐变_32);}.cls-38{fill:url(#未命名的渐变_32-2);}.cls-39{opacity:0.8;fill:url(#未命名的渐变_32-3);}.cls-40{fill:url(#未命名的渐变_35);}.cls-41{fill:url(#未命名的渐变_36);}</style><linearGradient id="未命名的渐变_3" x1="-603.16" y1="1200.62" x2="-603.16" y2="1237.46" gradientTransform="matrix(1.4, 0.3, -0.24, 1.11, 1164.78, -1137.67)" gradientUnits="userSpaceOnUse"><stop offset="0" stop-color="#fff"/><stop offset="0.01" stop-color="#fff" stop-opacity="0.23"/><stop offset="0.99" stop-color="#fff" stop-opacity="0.16"/><stop offset="1" stop-color="#fff" stop-opacity="0.39"/></linearGradient><linearGradient id="未命名的渐变_8" x1="2366.18" y1="4415.62" x2="2366.18" y2="4344.69" gradientTransform="translate(-413.87 -1460.16) rotate(12) scale(0.32)" gradientUnits="userSpaceOnUse"><stop offset="0" stop-color="#e89c42"/><stop offset="1" stop-color="#faca67"/></linearGradient><linearGradient id="未命名的渐变_77" x1="2366.18" y1="4267.31" x2="2366.18" y2="4343.26" gradientTransform="translate(-413.87 -1460.16) rotate(12) scale(0.32)" gradientUnits="userSpaceOnUse"><stop offset="0" stop-color="#665888"/><stop offset="1" stop-color="#958ec8"/></linearGradient><linearGradient id="未命名的渐变_3-2" x1="-605.12" y1="1205.89" x2="-605.12" y2="1242.73" gradientTransform="translate(894.78 -1348.25) scale(1.43 1.14)" xlink:href="#未命名的渐变_3"/><linearGradient id="未命名的渐变_8-2" x1="2357.26" y1="4434.56" x2="2357.26" y2="4363.63" gradientTransform="translate(-716.42 -1335.47) scale(0.32)" xlink:href="#未命名的渐变_8"/><linearGradient id="未命名的渐变_77-2" x1="2357.26" y1="4286.25" x2="2357.26" y2="4362.19" gradientTransform="translate(-716.42 -1335.47) scale(0.32)" xlink:href="#未命名的渐变_77"/><clipPath id="clip-path"><circle class="cls-1" cx="16.17" cy="51.5" r="3.41"/></clipPath><clipPath id="clip-path-2"><circle class="cls-1" cx="16.17" cy="51.5" r="6.67"/></clipPath><radialGradient id="未命名的渐变_20" cx="-5.75" cy="-558.67" r="3.12" gradientTransform="translate(-1180.51 55.37) rotate(90) scale(0.93 2.14)" gradientUnits="userSpaceOnUse"><stop offset="0" stop-color="#07132d"/><stop offset="1" stop-color="#425479"/></radialGradient><radialGradient id="未命名的渐变_21" cx="3180.44" cy="-3191.52" r="6.05" gradientTransform="translate(-1218.33 -881.48) rotate(90) scale(0.29 0.39)" gradientUnits="userSpaceOnUse"><stop offset="0" stop-color="#612f91"/><stop offset="1" stop-color="#1a4aa2"/></radialGradient><linearGradient id="未命名的渐变_22" x1="8357.16" y1="8213.11" x2="8357.16" y2="11193.69" gradientTransform="translate(-1035.96 -1317.02) scale(0.12)" gradientUnits="userSpaceOnUse"><stop offset="0" stop-color="#170418"/><stop offset="1" stop-color="#50386b"/></linearGradient><radialGradient id="未命名的渐变_23" cx="3158.2" cy="5476.45" r="2.82" gradientTransform="translate(-836.57 -1337.91) scale(0.27 0.25)" gradientUnits="userSpaceOnUse"><stop offset="0" stop-opacity="0"/><stop offset="0.5" stop-opacity="0"/><stop offset="1"/></radialGradient><linearGradient id="未命名的渐变_18" x1="2180.09" y1="-3957.37" x2="2180.09" y2="-3947.06" gradientTransform="matrix(0.34, 0, 0, -0.34, -731.82, -1304.54)" gradientUnits="userSpaceOnUse"><stop offset="0" stop-color="#fff"/><stop offset="0.34" stop-color="#fff" stop-opacity="0.23"/><stop offset="0.62" stop-color="#fff" stop-opacity="0.16"/><stop offset="1" stop-color="#fff" stop-opacity="0.39"/></linearGradient><radialGradient id="未命名的渐变_25" cx="-243.67" cy="1399.88" r="1.14" gradientTransform="translate(269.74 -1280.84) scale(0.96)" gradientUnits="userSpaceOnUse"><stop offset="0" stop-color="#ff54d2" stop-opacity="0"/><stop offset="0.32" stop-color="#f62b68"/><stop offset="0.56" stop-color="#ff0105"/><stop offset="1" stop-color="#ff54d2" stop-opacity="0.48"/></radialGradient><linearGradient id="未命名的渐变_18-2" x1="6496.22" y1="8780.54" x2="6496.22" y2="8790.86" gradientTransform="translate(-997.24 -1319.05) scale(0.16)" xlink:href="#未命名的渐变_18"/><linearGradient id="未命名的渐变_27" x1="15106.53" y1="24458.96" x2="15106.53" y2="24462.82" gradientTransform="translate(-1110.79 -1318.55) scale(0.07 0.06)" gradientUnits="userSpaceOnUse"><stop offset="0" stop-color="#fff"/><stop offset="1" stop-color="#fff" stop-opacity="0"/></linearGradient><radialGradient id="未命名的渐变_28" cx="69.37" cy="1064.53" r="1.14" gradientTransform="matrix(0.97, 0.26, -0.25, 0.93, 215.03, -958.26)" gradientUnits="userSpaceOnUse"><stop offset="0" stop-color="#fff" stop-opacity="0"/><stop offset="0.41" stop-color="#fff" stop-opacity="0"/><stop offset="1" stop-color="#fff" stop-opacity="0.48"/></radialGradient><radialGradient id="未命名的渐变_28-2" cx="-110.92" cy="-1252.07" r="1.14" gradientTransform="translate(-1191.57 162.32) rotate(90) scale(1 0.96)" xlink:href="#未命名的渐变_28"/><radialGradient id="未命名的渐变_28-3" cx="353.42" cy="-183.21" r="1.14" gradientTransform="matrix(0.58, 0.81, -0.78, 0.56, -333.6, -131.78)" xlink:href="#未命名的渐变_28"/><radialGradient id="未命名的渐变_31" cx="-3385.12" cy="-68.99" r="1.14" gradientTransform="matrix(-0.68, -0.68, 0.68, -0.68, -2245.76, -2304.49)" gradientUnits="userSpaceOnUse"><stop offset="0" stop-color="#ff54d2" stop-opacity="0"/><stop offset="0.32" stop-color="#ff54d2" stop-opacity="0"/><stop offset="0.56" stop-color="#ff54d2" stop-opacity="0.25"/><stop offset="1" stop-color="#ff54d2" stop-opacity="0.48"/></radialGradient><radialGradient id="未命名的渐变_32" cx="-1160.59" cy="2601.84" r="0.94" gradientTransform="matrix(1.07, -0.62, 0.35, 0.61, 343.2, -2241.08)" xlink:href="#未命名的渐变_27"/><radialGradient id="未命名的渐变_32-2" cx="-1083.55" cy="3234.67" r="0.94" gradientTransform="matrix(0.86, -0.5, 0.28, 0.49, 33.33, -2065.87)" xlink:href="#未命名的渐变_27"/><radialGradient id="未命名的渐变_32-3" cx="3570.3" cy="5371.18" r="0.94" gradientTransform="translate(-857.93 -1324.18) scale(0.24 0.26)" xlink:href="#未命名的渐变_27"/><linearGradient id="未命名的渐变_35" x1="3576.9" y1="5375.16" x2="3575.5" y2="5374.03" gradientTransform="translate(-859.98 -1325.42) scale(0.24 0.26)" gradientUnits="userSpaceOnUse"><stop offset="0" stop-color="#feffff"/><stop offset="1" stop-color="#fe70ca"/></linearGradient><linearGradient id="未命名的渐变_36" x1="5746.17" y1="7668.41" x2="5744.77" y2="7667.28" gradientTransform="translate(-968.03 -1322.17) scale(0.17 0.18)" gradientUnits="userSpaceOnUse"><stop offset="0" stop-color="#fbac9b"/><stop offset="1" stop-color="#fcfafc"/></linearGradient></defs><title>picture</title><g id="图层_2" data-name="图层 2"><path class="cls-2" d="M54.33,63.47.53,52,9.68,9l53.8,11.44Z"/><path class="cls-3" d="M10.06,9.59,62.88,20.82,53.94,62.88,1.12,51.65Z"/><path class="cls-4" d="M53.55,62.29l-51.84-11,8.73-41.08,51.84,11Z"/><path class="cls-5" d="M12.37,13.15,4.68,49.34l47,10,7.69-36.19Z"/><path class="cls-6" d="M12.14,14.23l-4.47,21a15.83,15.83,0,0,0,3.91,1.34,9,9,0,0,0,4.27.09,5.25,5.25,0,0,1,3.08-.06,13.4,13.4,0,0,1,4.27,2,16.9,16.9,0,0,0,5.72,2.44,13.61,13.61,0,0,0,7.36-.48c1.85-.53,3.41-1.12,5.46-.68A6.65,6.65,0,0,1,45,41.55a10,10,0,0,0,4.27,2A10.2,10.2,0,0,0,55,43.06l4-18.88Z"/><path class="cls-7" d="M12.14,14.23,7.88,34.28a15.83,15.83,0,0,0,3.91,1.34c4.11.87,3.81-.62,7.43.15s5.2,3.46,10,4.47c6,1.27,8.11-2.06,12.8-1.06,3.72.79,3.5,2.79,7.6,3.66,2.74.58,3.85-.31,5.75-.62l3.83-18Z"/><path class="cls-8" d="M12.37,13.15,8.44,31.64a6.64,6.64,0,0,0,2.42,1.13c2.15.46,4.68-.85,8.3-.08s5.88,3.6,10.48,4.58,6.26-2,12.13-.8,4.85,3.18,8.56,4c2.54.54,3.81-.11,5.4-.39l3.6-16.92Z"/><path class="cls-9" d="M42.22,34.83a13.88,13.88,0,0,0-6.91.27c-1.73.45-3.07,1-5.22.53a16.52,16.52,0,0,1-5.35-2.26A16.36,16.36,0,0,0,19.61,31a15.88,15.88,0,0,0-5-.14,9.81,9.81,0,0,1-3.32.22,5.12,5.12,0,0,1-2-1c-.08-.12-.17-.14-.37-.18l-.75,3.52a15.83,15.83,0,0,0,3.91,1.34,9.28,9.28,0,0,0,4.27.09,5.64,5.64,0,0,1,3.18,0,12.88,12.88,0,0,1,4.27,2,16.45,16.45,0,0,0,5.72,2.44,12.94,12.94,0,0,0,7.26-.5c1.85-.53,3.41-1.12,5.56-.66a6.4,6.4,0,0,1,3.31,1.73,10,10,0,0,0,4.27,2c2.74.58,4.12-.15,5.73-.52l.64-3a.37.37,0,0,0-.31,0c-1.69.25-2.74.85-5.08.35A5.72,5.72,0,0,1,47.78,37a17,17,0,0,0-5.56-2.2Z"/><path class="cls-10" d="M42,35.61c-5.87-1.25-7.53,1.77-12.13.8s-6.86-3.81-10.48-4.58-6.15.53-8.3.08a6.64,6.64,0,0,1-2.42-1.13l-.4,1.86A15.83,15.83,0,0,0,12.24,34c4.11.87,3.81-.62,7.43.15s5.2,3.46,10,4.47c6,1.27,8.11-2.06,12.8-1.06,3.72.79,3.5,2.79,7.6,3.66,2.74.58,3.85-.31,5.75-.62l.29-1.37c-1.59.28-2.86.93-5.4.39C46.89,38.79,47.82,36.84,42,35.61Z"/><path class="cls-11" d="M41.86,36.49c-5.87-1.25-7.53,1.77-12.13.8s-6.86-3.81-10.48-4.58-6.15.53-8.3.08a6.64,6.64,0,0,1-2.42-1.13l-.4,1.86a15.83,15.83,0,0,0,3.91,1.34c4.11.87,3.81-.62,7.43.15s5.2,3.46,10,4.47c6,1.27,8.11-2.06,12.8-1.06,3.72.79,3.5,2.79,7.6,3.66,2.74.58,3.85-.31,5.75-.62l.29-1.37c-1.59.28-2.86.93-5.4.39C46.71,39.67,47.63,37.72,41.86,36.49Z"/><path class="cls-12" d="M12.76,13.74l46,9.77L51.24,58.73,5.27,49Z"/><path class="cls-2" d="M55.5,63.5H.5v-44h55Z"/><path class="cls-3" d="M1,20H55V63H1Z"/><path class="cls-13" d="M54.5,62.5H1.5v-42h53Z"/><path class="cls-14" d="M4,23V60H52V23Z"/><path class="cls-15" d="M4,24.1V45.6a15.83,15.83,0,0,0,4.1.5,9,9,0,0,0,4.2-.8,5.25,5.25,0,0,1,3-.7,13.4,13.4,0,0,1,4.6,1.1A16.9,16.9,0,0,0,26,46.9a13.61,13.61,0,0,0,7.1-2c1.7-.9,3.1-1.8,5.2-1.8a6.65,6.65,0,0,1,3.5.9,10,10,0,0,0,4.6,1.1,10.2,10.2,0,0,0,5.5-1.7V24.1Z"/><path class="cls-16" d="M4,24.1V44.6a15.83,15.83,0,0,0,4.1.5c4.2,0,3.6-1.4,7.3-1.4S21.2,46,26.1,46c6.1,0,7.5-3.7,12.3-3.7,3.8,0,4,2,8.2,2,2.8,0,3.7-1.1,5.5-1.8V24.1Z"/><path class="cls-17" d="M4,23V41.9a6.64,6.64,0,0,0,2.6.6c2.2,0,4.4-1.8,8.1-1.8S21.2,43,25.9,43s5.7-3.3,11.7-3.3,5.4,2.1,9.2,2.1c2.6,0,3.7-.9,5.2-1.5V23Z"/><path class="cls-9" d="M37.7,38A13.88,13.88,0,0,0,31,39.7c-1.6.8-2.8,1.6-5,1.6a16.52,16.52,0,0,1-5.7-1.1A16.36,16.36,0,0,0,14.8,39a15.88,15.88,0,0,0-4.9.9,9.81,9.81,0,0,1-3.2.9,5.12,5.12,0,0,1-2.2-.6c-.1-.1-.2-.1-.4-.1v3.6a15.83,15.83,0,0,0,4.1.5,9.28,9.28,0,0,0,4.2-.8,5.64,5.64,0,0,1,3.1-.7,12.88,12.88,0,0,1,4.6,1.1A16.45,16.45,0,0,0,26.2,45a12.94,12.94,0,0,0,7-2c1.7-.9,3.1-1.8,5.3-1.8a6.4,6.4,0,0,1,3.6,1,10,10,0,0,0,4.6,1.1c2.8,0,4-1,5.5-1.7V38.5a.37.37,0,0,0-.3.1c-1.6.6-2.5,1.4-4.9,1.4a5.72,5.72,0,0,1-3.4-1,17,17,0,0,0-5.9-1Z"/><path class="cls-10" d="M37.7,38.8c-6,0-7,3.3-11.7,3.3s-7.5-2.3-11.2-2.3-5.9,1.8-8.1,1.8A6.64,6.64,0,0,1,4.1,41v1.9a15.83,15.83,0,0,0,4.1.5c4.2,0,3.6-1.4,7.3-1.4s5.8,2.3,10.7,2.3c6.1,0,7.5-3.7,12.3-3.7,3.8,0,4,2,8.2,2,2.8,0,3.7-1.1,5.5-1.8V39.4c-1.5.6-2.6,1.5-5.2,1.5C43.1,40.9,43.6,38.8,37.7,38.8Z"/><path class="cls-11" d="M37.7,39.7c-6,0-7,3.3-11.7,3.3s-7.5-2.3-11.2-2.3-5.9,1.8-8.1,1.8a6.64,6.64,0,0,1-2.6-.6v1.9a15.83,15.83,0,0,0,4.1.5c4.2,0,3.6-1.4,7.3-1.4s5.8,2.3,10.7,2.3c6.1,0,7.5-3.7,12.3-3.7,3.8,0,4,2,8.2,2,2.8,0,3.7-1.1,5.5-1.8V40.3c-1.5.6-2.6,1.5-5.2,1.5C43.1,41.8,43.6,39.7,37.7,39.7Z"/><path class="cls-12" d="M4.5,23.5h47v36H4.5Z"/><g id="图层_2-2" data-name="图层 2"><circle class="cls-18" cx="16.17" cy="51.5" r="3.97"/><circle class="cls-19" cx="16.17" cy="51.5" r="3.78"/><g class="cls-20"><g class="cls-21"><g class="cls-22"><path class="cls-23" d="M10.3,47.87a.39.39,0,0,0-.68,0,7.19,7.19,0,0,0-.94,3.6,7.3,7.3,0,0,0,.26,1.92.4.4,0,0,0,.37.28h3.81a.38.38,0,0,0,.33-.58Z"/><path class="cls-23" d="M16.12,48.32H22.3a.4.4,0,0,0,.35-.58,7.66,7.66,0,0,0-4.51-3.46.39.39,0,0,0-.44.19l-1.92,3.27A.4.4,0,0,0,16.12,48.32Z"/><path class="cls-23" d="M13.36,50.07l3.2-5.47a.38.38,0,0,0-.33-.58h-.07a7.43,7.43,0,0,0-5.4,2.32.39.39,0,0,0,0,.47l2,3.27A.39.39,0,0,0,13.36,50.07Z"/><path class="cls-23" d="M18.86,49.82,22,55.24a.39.39,0,0,0,.68,0,7.46,7.46,0,0,0,1-3.74,7,7,0,0,0-.28-2,.4.4,0,0,0-.37-.28H19.18A.38.38,0,0,0,18.86,49.82Z"/><path class="cls-23" d="M18.93,53,15.84,58.4a.38.38,0,0,0,.33.58h0a7.4,7.4,0,0,0,5.31-2.22.39.39,0,0,0,0-.47L19.61,53A.39.39,0,0,0,18.93,53Z"/><path class="cls-23" d="M16.14,54.63H10a.38.38,0,0,0-.33.58,7.52,7.52,0,0,0,2.62,2.67,6.61,6.61,0,0,0,1.78.77.39.39,0,0,0,.44-.19l2-3.27A.39.39,0,0,0,16.14,54.63Z"/></g></g></g></g><circle class="cls-3" cx="16.17" cy="51.5" r="1.24"/><path class="cls-24" d="M16.17,50.07A1.43,1.43,0,1,0,17.6,51.5,1.44,1.44,0,0,0,16.17,50.07Z"/><path class="cls-25" d="M16.17,50.17A1.33,1.33,0,1,0,17.5,51.5,1.33,1.33,0,0,0,16.17,50.17Z"/><path class="cls-26" d="M16.17,50.37A1.13,1.13,0,1,0,17.3,51.5a1.13,1.13,0,0,0-1.13-1.13Z"/><path class="cls-27" d="M16.17,50.76a.74.74,0,1,0,.74.74A.74.74,0,0,0,16.17,50.76Z"/><path class="cls-28" d="M16.17,50.91a.59.59,0,1,0,.59.59A.59.59,0,0,0,16.17,50.91Z"/><path class="cls-29" d="M17.8,51.5a1.64,1.64,0,1,0-1.64,1.64A1.63,1.63,0,0,0,17.8,51.5Z"/><path class="cls-25" d="M16.17,50.46a1,1,0,1,0,1,1A1,1,0,0,0,16.17,50.46Z"/><path class="cls-30" d="M15.12,51.3a1,1,0,0,1,.77-.83l.28,1Z"/><path class="cls-31" d="M16.91,51.5a.74.74,0,1,1-.74-.74A.74.74,0,0,1,16.91,51.5Z"/><path class="cls-32" d="M16.41,51.31c0,.1-.12.19-.26.19s-.25-.09-.25-.19.1-.19.25-.2a.23.23,0,0,1,.26.2Z"/><path class="cls-33" d="M17.24,51.5a1.09,1.09,0,0,1-.07.38l-1-.38Z"/><path class="cls-34" d="M16.27,52.57a.94.94,0,0,1-.35,0l.25-1Z"/><path class="cls-35" d="M17.08,52.06a1.07,1.07,0,0,1-.49.42l-.42-1Z"/><path class="cls-36" d="M15.41,50.47a1.06,1.06,0,0,1,1.51,0h0l-.75.77Z"/><path class="cls-37" d="M17.86,51.83c.19.32-.12.83-.67,1.14s-1.14.32-1.33,0,.12-.83.67-1.14S17.67,51.51,17.86,51.83Z"/><path class="cls-38" d="M16.08,50.05c.14.25-.09.67-.54.93s-.93.26-1.07,0h0c-.14-.25.1-.67.54-.93s.93-.26,1.07,0Z"/><path class="cls-39" d="M16.31,51.38a.24.24,0,0,1-.23.25.23.23,0,0,1-.23-.25.23.23,0,1,1,.46,0Z"/><path class="cls-40" d="M15.7,51a.24.24,0,0,1-.23.25.25.25,0,0,1,0-.49A.25.25,0,0,1,15.7,51Z"/><path class="cls-41" d="M15.76,51.15a.17.17,0,0,1-.16.17.16.16,0,0,1-.16-.17A.17.17,0,0,1,15.6,51,.16.16,0,0,1,15.76,51.15Z"/></g></svg>